<svg xmlns="http://www.w3.org/2000/svg" fill="none" viewBox="0 0 16 16">
  <path fill="#000" d="M.327 1.638C0 2.2798 0 3.1198 0 4.8v1.4c0 .2778 0 .4167.0442.5148.0434.0962.0926.154.1808.212.0898.0591.2505.0849.5719.1364C3.1795 7.4447 5 9.5098 5 12c0 .9857-.2852 1.9048-.7777 2.6793-.264.4152-.396.6228-.4155.7038-.0696.2894.0424.4933.3239.5898C4.2096 16 4.4064 16 4.8 16h6.4c1.6802 0 2.5202 0 3.162-.327a2.9994 2.9994 0 0 0 1.311-1.311C16 13.7202 16 12.8802 16 11.2V4.8c0-1.6802 0-2.5202-.327-3.162A2.9997 2.9997 0 0 0 14.362.327C13.7202 0 12.8802 0 11.2 0H4.8C3.1198 0 2.2798 0 1.638.327A3 3 0 0 0 .327 1.638Z"/>
</svg>