<svg xmlns="http://www.w3.org/2000/svg" fill="none" viewBox="0 0 36 36">
    <path fill="#000" d="M18 0C8.05887 0 0 8.05887 0 18C0 18.1701 0 18.2552 0.00787954 18.3437C0.0846882 19.2064 0.543889 19.7881 1.36525 20.0629C1.44951 20.0911 1.66502 20.1426 2.09605 20.2454C6.05569 21.1899 9 24.7511 9 29C9 29.4494 8.96706 29.8911 8.90347 30.3228C8.70633 31.6612 8.60776 32.3304 8.70092 32.7106C8.79342 33.0881 8.92135 33.3234 9.18789 33.6062C9.45634 33.8911 9.81377 34.0544 10.5286 34.381C12.8044 35.4206 15.3345 36 18 36C27.9411 36 36 27.9411 36 18C36 8.05887 27.9411 0 18 0Z" />
</svg>