<svg xmlns="http://www.w3.org/2000/svg" fill="none" viewBox="0 0 36 36">
  <path fill="#000" d="M1.09 5.46C0 7.5993 0 10.3996 0 16v2.4c0 .5541 0 .8311.0862 1.025.0858.193.1785.3037.3534.4221.1757.1189.5014.177 1.1527.2933C5.8034 20.8922 9 24.5728 9 29c0 1.5434-.3885 2.996-1.073 4.2655-.4558.8452-.6837 1.2678-.6554 1.5693.0255.272.1463.5011.3565.6757.2328.1936.583.2306 1.2833.3047C10.6583 36 12.9002 36 16 36h4c5.6005 0 8.4008 0 10.5399-1.0899a10.001 10.001 0 0 0 4.3702-4.3702C36 28.4008 36 25.6005 36 20v-4c0-5.6005 0-8.4008-1.0899-10.54a10.0006 10.0006 0 0 0-4.3702-4.37C28.4008 0 25.6005 0 20 0h-4C10.3995 0 7.5992 0 5.46 1.09a10 10 0 0 0-4.37 4.37Z"/>
</svg>