<svg xmlns="http://www.w3.org/2000/svg" fill="none" viewBox="0 0 34 36">
  <path fill="#000" fill-rule="evenodd" d="M33.1479 8.2728c.2748.427.4122.6404.4934.9175.072.2458.0961.502.0712.7568-.0281.2873-.1604.6148-.4251 1.2696C32.4569 13.2714 32 15.5147 32 17.8639c0 2.403.4781 4.6953 1.3451 6.7881.2703.6525.4054.9788.436 1.2659.0271.2546.0051.511-.0647.7573-.0788.2778-.2144.4925-.4855.9218C30.0427 32.6463 24.413 36 18 36 8.0589 36 0 27.9411 0 18S8.0589 0 18 0c6.3577 0 11.9456 3.2961 15.1479 8.2728Z" clip-rule="evenodd"/>
</svg>