<svg width="212" height="60" viewBox="0 0 212 60" fill="none" xmlns="http://www.w3.org/2000/svg">
<g clip-path="url(#clip0_12974_6060)">
<path fill-rule="evenodd" clip-rule="evenodd" d="M206.777 20.0204L207.64 17.862C207.64 17.862 206.541 16.6628 205.208 15.3038C203.874 13.9447 201.049 14.7442 201.049 14.7442L197.832 11.0256H192.182H186.532L183.315 14.7442C183.315 14.7442 180.491 13.9447 179.157 15.3038C177.823 16.6628 176.724 17.862 176.724 17.862L177.587 20.0204L176.489 23.2181C176.489 23.2181 179.72 35.6856 180.098 37.2081C180.844 40.206 181.354 41.3652 183.472 42.8841C185.591 44.403 189.436 47.0411 190.063 47.4408C190.691 47.8405 191.476 48.5214 192.182 48.5214C192.888 48.5214 193.673 47.8405 194.301 47.4408C194.928 47.0411 198.773 44.403 200.892 42.8841C203.01 41.3652 203.521 40.206 204.266 37.2081C204.644 35.6856 207.875 23.2181 207.875 23.2181L206.777 20.0204Z" fill="url(#paint0_linear_12974_6060)"/>
<path fill-rule="evenodd" clip-rule="evenodd" d="M192.182 34.3596C192.398 34.3596 193.776 34.8552 194.881 35.4382C195.987 36.0212 196.788 36.4335 197.045 36.5968C197.301 36.7602 197.145 37.0682 196.911 37.2363C196.678 37.4043 193.542 39.878 193.238 40.1515C192.934 40.4249 192.486 40.8765 192.182 40.8765C191.878 40.8765 191.431 40.4249 191.127 40.1515C190.822 39.878 187.687 37.4043 187.454 37.2363C187.22 37.0682 187.064 36.7602 187.32 36.5968C187.576 36.4335 188.378 36.0212 189.484 35.4382C190.589 34.8552 191.967 34.3596 192.182 34.3596ZM192.199 16.7405C192.305 16.7435 192.9 16.7729 193.752 17.0622C194.693 17.382 195.713 17.7817 196.184 17.7817C196.655 17.7817 200.147 17.1022 200.147 17.1022C200.147 17.1022 204.285 22.1986 204.285 23.2878C204.285 24.377 203.764 24.6645 203.241 25.2307C202.718 25.797 200.432 28.2699 200.138 28.5874C199.845 28.9051 199.234 29.3865 199.593 30.2532C199.952 31.1199 200.483 32.2227 199.893 33.3412C199.303 34.4598 198.293 35.2064 197.646 35.083C196.998 34.9594 195.478 34.15 194.919 33.7803C194.36 33.4106 192.588 31.9217 192.588 31.352C192.588 30.7824 194.42 29.7596 194.758 29.5272C195.096 29.2949 196.64 28.3955 196.672 28.0425C196.703 27.6894 196.691 27.5858 196.236 26.7135C195.78 25.8411 194.96 24.677 195.096 23.9024C195.233 23.1279 196.556 22.7251 197.5 22.3619C198.444 21.9987 200.262 21.3127 200.489 21.2061C200.716 21.0993 200.657 20.9977 199.969 20.9313C199.281 20.8649 197.329 20.6009 196.449 20.8508C195.569 21.1007 194.066 21.4809 193.944 21.6825C193.822 21.8841 193.715 21.8909 193.84 22.5864C193.965 23.282 194.609 26.6192 194.671 27.212C194.734 27.8048 194.856 28.1967 194.229 28.3428C193.601 28.489 192.545 28.7427 192.182 28.7427C191.82 28.7427 190.763 28.489 190.136 28.3428C189.509 28.1967 189.631 27.8048 189.693 27.212C189.756 26.6192 190.4 23.282 190.525 22.5864C190.65 21.8909 190.542 21.8841 190.421 21.6825C190.299 21.4809 188.795 21.1007 187.915 20.8508C187.035 20.6009 185.084 20.8649 184.396 20.9313C183.708 20.9977 183.649 21.0993 183.876 21.2061C184.103 21.3127 185.921 21.9987 186.865 22.3619C187.809 22.7251 189.132 23.1279 189.269 23.9024C189.405 24.677 188.585 25.8411 188.129 26.7135C187.674 27.5858 187.662 27.6894 187.693 28.0425C187.725 28.3955 189.268 29.2949 189.607 29.5272C189.945 29.7596 191.777 30.7824 191.777 31.352C191.777 31.9217 190.005 33.4106 189.446 33.7803C188.887 34.15 187.367 34.9594 186.719 35.083C186.072 35.2064 185.062 34.4598 184.472 33.3412C183.882 32.2227 184.412 31.1199 184.772 30.2532C185.131 29.3865 184.52 28.9051 184.227 28.5874C183.933 28.2699 181.647 25.797 181.124 25.2307C180.601 24.6645 180.08 24.377 180.08 23.2878C180.08 22.1986 184.218 17.1022 184.218 17.1022C184.218 17.1022 187.71 17.7817 188.181 17.7817C188.651 17.7817 189.672 17.382 190.613 17.0622C191.465 16.7729 192.06 16.7435 192.166 16.7405H192.199Z" fill="white"/>
<mask id="mask0_12974_6060" style="mask-type:alpha" maskUnits="userSpaceOnUse" x="179" y="11" width="27" height="7">
<path d="M201.049 14.7442L197.832 11.0256H192.182H186.533L183.315 14.7442C183.315 14.7442 180.491 13.9447 179.157 15.3038C179.157 15.3038 182.923 14.9574 184.218 17.1025C184.218 17.1025 187.71 17.782 188.18 17.782C188.651 17.782 189.671 17.3823 190.613 17.0625C191.554 16.7428 192.182 16.7404 192.182 16.7404C192.182 16.7404 192.81 16.7428 193.752 17.0625C194.693 17.3823 195.713 17.782 196.184 17.782C196.655 17.782 200.147 17.1025 200.147 17.1025C201.441 14.9574 205.208 15.3038 205.208 15.3038C203.874 13.9447 201.049 14.7442 201.049 14.7442Z" fill="white"/>
</mask>
<g mask="url(#mask0_12974_6060)">
<path d="M201.049 14.7442L197.832 11.0256H192.182H186.533L183.315 14.7442C183.315 14.7442 180.491 13.9447 179.157 15.3038C179.157 15.3038 182.923 14.9574 184.218 17.1025C184.218 17.1025 187.71 17.782 188.18 17.782C188.651 17.782 189.671 17.3823 190.613 17.0625C191.554 16.7428 192.182 16.7404 192.182 16.7404C192.182 16.7404 192.81 16.7428 193.752 17.0625C194.693 17.3823 195.713 17.782 196.184 17.782C196.655 17.782 200.147 17.1025 200.147 17.1025C201.441 14.9574 205.208 15.3038 205.208 15.3038C203.874 13.9447 201.049 14.7442 201.049 14.7442Z" fill="url(#paint1_linear_12974_6060)"/>
</g>

</g>
<path fill-rule="evenodd" clip-rule="evenodd" d="M19.2374 15.2988C19.9319 15.2993 20.612 15.4966 21.199 15.8677C21.786 16.2388 22.2559 16.7686 22.5542 17.3958L27.4135 27.6188C27.4135 27.6188 27.4135 27.6235 27.4081 27.6235C27.4081 27.6235 27.4081 27.6183 27.4135 27.6183C28.5527 26.2221 29.3793 24.5787 29.7322 22.8143C30.1304 20.8235 32.0658 19.538 34.0569 19.9315C34.5303 20.026 34.9803 20.2129 35.3814 20.4815C35.7826 20.75 36.1268 21.0949 36.3946 21.4966C36.9354 22.3078 37.1317 23.3006 36.9405 24.2562C36.1239 28.334 33.8453 31.9788 30.7606 34.6553L32.5246 38.3653C33.5028 40.4221 32.4793 42.9375 30.3116 43.5823L30.2463 43.6028C29.928 43.6924 29.5989 43.7382 29.2682 43.7388C28.573 43.7388 27.8919 43.5419 27.3041 43.1707C26.7162 42.7996 26.2455 42.2695 25.9465 41.6418L24.3786 38.3453L21.1878 31.631H21.1984H21.1878L19.6203 28.3345C19.5862 28.2631 19.5327 28.2028 19.4658 28.1606C19.3989 28.1184 19.3214 28.096 19.2423 28.096C19.0808 28.096 18.9339 28.1887 18.8642 28.3345L17.2618 31.7015C14.8163 31.183 12.3566 29.6699 10.9654 27.8301L15.9204 17.4057C16.2154 16.7753 16.6842 16.2422 17.2717 15.869C17.8592 15.4958 18.541 15.298 19.237 15.2988H19.2374ZM5.34995 24.3619C7.23003 23.601 9.37279 24.508 10.1335 26.3935C10.3304 26.8823 10.6126 27.3613 10.9604 27.82L10.9654 27.8253L11.1316 28.0364C11.1471 28.0568 11.1621 28.0723 11.1771 28.0923L11.2224 28.1475C11.2479 28.1728 11.2678 28.2034 11.2932 28.2283C11.2982 28.2332 11.3031 28.2386 11.3031 28.2436L11.2932 28.2283C11.3888 28.3443 11.4945 28.455 11.6005 28.5665C11.6057 28.571 11.6057 28.5762 11.6106 28.5762C11.9681 28.947 12.3541 29.2892 12.7652 29.5996C12.9616 29.7507 13.1633 29.8916 13.3699 30.033C13.3899 30.0431 13.405 30.0579 13.4255 30.0684C14.5898 30.8343 15.9254 31.4088 17.2564 31.6914C17.8208 31.8126 18.3856 31.8779 18.935 31.8828H19.0054C19.7364 31.8828 20.4674 31.7921 21.1828 31.6207L24.3739 38.3348C22.6498 38.9151 20.8401 39.2323 19.0054 39.2323C17.3519 39.2323 15.6786 38.9453 14.0552 38.4259L12.5279 41.6369C12.3146 42.0853 12.0126 42.4858 11.6401 42.8142C11.2676 43.1427 10.8324 43.3921 10.3608 43.5476C9.88919 43.7031 9.39095 43.7613 8.89619 43.7188C8.40143 43.6763 7.92043 43.5339 7.48226 43.3002C5.72803 42.3675 5.08783 40.17 5.94001 38.3756L7.61325 34.8571C5.7231 33.2591 4.21579 31.3182 3.34421 29.2113L3.31883 29.146C2.56279 27.2655 3.47015 25.1235 5.35033 24.3619H5.34995Z" fill="black"/>
<path fill-rule="evenodd" clip-rule="evenodd" d="M19.2374 15.2988C19.9319 15.2993 20.612 15.4966 21.199 15.8677C21.786 16.2388 22.2559 16.7686 22.5542 17.3958L27.4135 27.6188C27.4135 27.6188 27.4135 27.6235 27.4081 27.6235C27.4081 27.6235 27.4081 27.6183 27.4135 27.6183C28.5527 26.2221 29.3793 24.5787 29.7322 22.8143C30.1304 20.8235 32.0658 19.538 34.0569 19.9315C34.5303 20.026 34.9803 20.2129 35.3814 20.4815C35.7826 20.75 36.1268 21.0949 36.3946 21.4966C36.9354 22.3078 37.1317 23.3006 36.9405 24.2562C36.1239 28.334 33.8453 31.9788 30.7606 34.6553L32.5246 38.3653C33.5028 40.4221 32.4793 42.9375 30.3116 43.5823L30.2463 43.6028C29.928 43.6924 29.5989 43.7382 29.2682 43.7388C28.573 43.7388 27.8919 43.5419 27.3041 43.1707C26.7162 42.7996 26.2455 42.2695 25.9465 41.6418L24.3786 38.3453L21.1878 31.631H21.1984H21.1878L19.6203 28.3345C19.5862 28.2631 19.5327 28.2028 19.4658 28.1606C19.3989 28.1184 19.3214 28.096 19.2423 28.096C19.0808 28.096 18.9339 28.1887 18.8642 28.3345L17.2618 31.7015C14.8163 31.183 12.3566 29.6699 10.9654 27.8301L15.9204 17.4057C16.2154 16.7753 16.6842 16.2422 17.2717 15.869C17.8592 15.4958 18.541 15.298 19.237 15.2988H19.2374ZM5.34995 24.3619C7.23003 23.601 9.37279 24.508 10.1335 26.3935C10.3304 26.8823 10.6126 27.3613 10.9604 27.82L10.9654 27.8253L11.1316 28.0364C11.1471 28.0568 11.1621 28.0723 11.1771 28.0923L11.2224 28.1475C11.2479 28.1728 11.2678 28.2034 11.2932 28.2283C11.2982 28.2332 11.3031 28.2386 11.3031 28.2436L11.2932 28.2283C11.3888 28.3443 11.4945 28.455 11.6005 28.5665C11.6057 28.571 11.6057 28.5762 11.6106 28.5762C11.9681 28.947 12.3541 29.2892 12.7652 29.5996C12.9616 29.7507 13.1633 29.8916 13.3699 30.033C13.3899 30.0431 13.405 30.0579 13.4255 30.0684C14.5898 30.8343 15.9254 31.4088 17.2564 31.6914C17.8208 31.8126 18.3856 31.8779 18.935 31.8828H19.0054C19.7364 31.8828 20.4674 31.7921 21.1828 31.6207L24.3739 38.3348C22.6498 38.9151 20.8401 39.2323 19.0054 39.2323C17.3519 39.2323 15.6786 38.9453 14.0552 38.4259L12.5279 41.6369C12.3146 42.0853 12.0126 42.4858 11.6401 42.8142C11.2676 43.1427 10.8324 43.3921 10.3608 43.5476C9.88919 43.7031 9.39095 43.7613 8.89619 43.7188C8.40143 43.6763 7.92043 43.5339 7.48226 43.3002C5.72803 42.3675 5.08783 40.17 5.94001 38.3756L7.61325 34.8571C5.7231 33.2591 4.21579 31.3182 3.34421 29.2113L3.31883 29.146C2.56279 27.2655 3.47015 25.1235 5.35033 24.3619H5.34995Z" fill="white" stroke="white" stroke-width="5.68641" stroke-linecap="round" stroke-linejoin="round"/>
<path fill-rule="evenodd" clip-rule="evenodd" d="M14.0551 38.4262L17.256 31.6917C14.8114 31.1723 12.3514 29.66 10.9601 27.8203L7.61304 34.8573C9.47318 36.4349 11.7061 37.6751 14.0551 38.4262Z" fill="#1A007F"/>
<path fill-rule="evenodd" clip-rule="evenodd" d="M27.4137 27.6184C25.8058 29.5896 23.5724 31.0512 21.1831 31.6208L24.3741 38.3349C26.7031 37.5489 28.8803 36.2788 30.7603 34.6502L27.4137 27.6184Z" fill="#4E000A"/>
<path fill-rule="evenodd" clip-rule="evenodd" d="M7.61318 34.8574L5.93981 38.376C5.08785 40.1654 5.72808 42.3678 7.4821 43.3006C9.34228 44.2884 11.6308 43.5174 12.5284 41.6372L14.0552 38.4262C11.6967 37.6659 9.50862 36.4538 7.61318 34.8574Z" fill="#1A007F"/>
<path fill-rule="evenodd" clip-rule="evenodd" d="M34.0567 19.9365C33.5834 19.8417 33.0961 19.8411 32.6226 19.9348C32.149 20.0284 31.6986 20.2144 31.297 20.4822C30.4861 21.023 29.9231 21.8636 29.7319 22.8196C29.3792 24.5837 28.5521 26.227 27.4133 27.6237L30.755 34.6608C33.84 31.9834 36.119 28.339 36.9349 24.2612C37.3335 22.2651 36.043 20.3297 34.0567 19.9365Z" fill="#FF9396"/>
<path fill-rule="evenodd" clip-rule="evenodd" d="M21.1828 31.6216C20.4698 31.7938 19.7388 31.8817 19.0052 31.8832C18.4358 31.8832 17.8461 31.8179 17.2562 31.6917C14.8114 31.1727 12.3514 29.6604 10.9602 27.8206C10.6124 27.3617 10.3299 26.8828 10.1339 26.3939C9.37264 24.5137 7.22997 23.6064 5.34984 24.3624C3.46967 25.1234 2.56231 27.266 3.31834 29.146C4.18032 31.2837 5.70262 33.2445 7.6131 34.8571C9.50682 36.4536 11.6934 37.6658 14.0505 38.4263C15.6686 38.9452 17.3469 39.2328 19.0005 39.2328C20.8349 39.2328 22.6449 38.9151 24.3685 38.3356L21.1828 31.6216Z" fill="#002DC8"/>
<path fill-rule="evenodd" clip-rule="evenodd" d="M32.5195 38.3603L30.7555 34.6506L27.4134 27.6186L27.408 27.6235C27.408 27.6235 27.408 27.6186 27.4134 27.6186L22.5541 17.396C22.2558 16.7689 21.7859 16.2391 21.1989 15.8679C20.6119 15.4968 19.9317 15.2996 19.2373 15.2991C17.8201 15.3002 16.5295 16.116 15.9208 17.396L10.9652 27.8203C12.3565 29.66 14.8161 31.1725 17.2611 31.6916L18.8639 28.3245C19.0151 28.0068 19.4692 28.0068 19.6202 28.3245L21.1882 31.6209H21.1982H21.1879L24.3789 38.335L25.9465 41.6322C26.5549 42.9148 27.8486 43.7315 29.2681 43.7291C29.5989 43.7288 29.9279 43.683 30.2462 43.5929C32.4592 42.9831 33.5077 40.4377 32.5195 38.3603Z" fill="#FF536A"/>
<path fill-rule="evenodd" clip-rule="evenodd" d="M14.0551 38.4262L17.256 31.6917C14.8114 31.1723 12.3514 29.66 10.9601 27.8203L7.61304 34.8573C9.47318 36.4349 11.7061 37.6751 14.0551 38.4262Z" fill="#1A007F"/>
<path fill-rule="evenodd" clip-rule="evenodd" d="M27.4137 27.6184C25.8058 29.5896 23.5724 31.0512 21.1831 31.6208L24.3741 38.3349C26.7031 37.5489 28.8803 36.2788 30.7603 34.6502L27.4137 27.6184Z" fill="#4E000A"/>
<path fill-rule="evenodd" clip-rule="evenodd" d="M7.61318 34.8574L5.93981 38.376C5.08785 40.1654 5.72808 42.3678 7.4821 43.3006C9.34228 44.2884 11.6308 43.5174 12.5284 41.6372L14.0552 38.4262C11.6967 37.6659 9.50862 36.4538 7.61318 34.8574Z" fill="#1A007F"/>
<path fill-rule="evenodd" clip-rule="evenodd" d="M34.0567 19.9365C33.5834 19.8417 33.0961 19.8411 32.6226 19.9348C32.149 20.0284 31.6986 20.2144 31.297 20.4822C30.4861 21.023 29.9231 21.8636 29.7319 22.8196C29.3792 24.5837 28.5521 26.227 27.4133 27.6237L30.755 34.6608C33.84 31.9834 36.119 28.339 36.9349 24.2612C37.3335 22.2651 36.043 20.3297 34.0567 19.9365Z" fill="#FF9396"/>
<path fill-rule="evenodd" clip-rule="evenodd" d="M21.1828 31.6216C20.4698 31.7938 19.7388 31.8817 19.0052 31.8832C18.4358 31.8832 17.8461 31.8179 17.2562 31.6917C14.8114 31.1727 12.3514 29.6604 10.9602 27.8206C10.6124 27.3617 10.3299 26.8828 10.1339 26.3939C9.37264 24.5137 7.22997 23.6064 5.34984 24.3624C3.46967 25.1234 2.56231 27.266 3.31834 29.146C4.18032 31.2837 5.70262 33.2445 7.6131 34.8571C9.50682 36.4536 11.6934 37.6658 14.0505 38.4263C15.6686 38.9452 17.3469 39.2328 19.0005 39.2328C20.8349 39.2328 22.6449 38.9151 24.3685 38.3356L21.1828 31.6216Z" fill="#002DC8"/>
<path fill-rule="evenodd" clip-rule="evenodd" d="M32.5195 38.3603L30.7555 34.6506L27.4134 27.6186L27.408 27.6235C27.408 27.6235 27.408 27.6186 27.4134 27.6186L22.5541 17.396C22.2558 16.7689 21.7859 16.2391 21.1989 15.8679C20.6119 15.4968 19.9317 15.2996 19.2373 15.2991C17.8201 15.3002 16.5295 16.116 15.9208 17.396L10.9652 27.8203C12.3565 29.66 14.8161 31.1725 17.2611 31.6916L18.8639 28.3245C19.0151 28.0068 19.4692 28.0068 19.6202 28.3245L21.1882 31.6209H21.1982H21.1879L24.3789 38.335L25.9465 41.6322C26.5549 42.9148 27.8486 43.7315 29.2681 43.7291C29.5989 43.7288 29.9279 43.683 30.2462 43.5929C32.4592 42.9831 33.5077 40.4377 32.5195 38.3603Z" fill="#FF536A"/>
<g clip-path="url(#clip1_12974_6060)">
<path d="M175.25 42.2757C174.576 42.6261 173.881 42.9344 173.168 43.1989C170.913 44.0385 168.524 44.4643 166.117 44.4559C156.827 44.4559 148.734 38.0725 148.734 29.8624C148.746 28.763 149.051 27.6867 149.617 26.7442C150.184 25.8018 150.991 25.0272 151.956 24.5002C143.549 24.8538 141.388 33.6139 141.388 38.7403C141.388 53.2749 154.764 54.7284 157.652 54.7284C159.203 54.7284 161.541 54.2766 162.955 53.8249L163.21 53.7463C168.622 51.876 173.236 48.2183 176.291 43.3757C176.38 43.2285 176.418 43.0563 176.4 42.8854C176.381 42.7146 176.307 42.5545 176.189 42.4296C176.071 42.3048 175.915 42.2222 175.746 42.1944C175.576 42.1666 175.402 42.1952 175.25 42.2757Z" fill="url(#paint2_linear_12974_6060)"/>
<path opacity="0.35" d="M175.25 42.2757C174.576 42.6261 173.881 42.9344 173.168 43.1989C170.913 44.0385 168.524 44.4643 166.117 44.4559C156.827 44.4559 148.734 38.0725 148.734 29.8624C148.746 28.763 149.051 27.6867 149.617 26.7442C150.184 25.8018 150.991 25.0272 151.956 24.5002C143.549 24.8538 141.388 33.6139 141.388 38.7403C141.388 53.2749 154.764 54.7284 157.652 54.7284C159.203 54.7284 161.541 54.2766 162.955 53.8249L163.21 53.7463C168.622 51.876 173.236 48.2183 176.291 43.3757C176.38 43.2285 176.418 43.0563 176.4 42.8854C176.381 42.7146 176.307 42.5545 176.189 42.4296C176.071 42.3048 175.915 42.2222 175.746 42.1944C175.576 42.1666 175.402 42.1952 175.25 42.2757Z" fill="url(#paint3_radial_12974_6060)"/>
<path d="M150.62 52.2536C148.872 51.1678 147.356 49.7458 146.161 48.07C144.797 46.2025 143.858 44.059 143.41 41.79C142.962 39.5209 143.016 37.1813 143.568 34.9353C144.12 32.6894 145.157 30.5914 146.606 28.7888C148.055 26.9861 149.881 25.5224 151.956 24.5003C152.584 24.2057 153.625 23.695 155.02 23.7146C156.001 23.7222 156.967 23.9567 157.843 24.3996C158.719 24.8426 159.48 25.482 160.068 26.268C160.858 27.3308 161.291 28.6166 161.305 29.941C161.305 29.9017 166.117 14.3064 145.592 14.3064C136.969 14.3064 129.879 22.4772 129.879 29.666C129.844 33.4634 130.656 37.2207 132.255 40.6652C134.874 46.2414 139.449 50.6621 145.112 53.088C150.775 55.5139 157.131 55.7761 162.975 53.825C160.927 54.4715 158.764 54.6659 156.634 54.3946C154.505 54.1233 152.459 53.3928 150.64 52.2536H150.62Z" fill="url(#paint4_linear_12974_6060)"/>
<path opacity="0.41" d="M150.62 52.2536C148.872 51.1678 147.356 49.7458 146.161 48.07C144.797 46.2025 143.858 44.059 143.41 41.79C142.962 39.5209 143.016 37.1813 143.568 34.9353C144.12 32.6894 145.157 30.5914 146.606 28.7888C148.055 26.9861 149.881 25.5224 151.956 24.5003C152.584 24.2057 153.625 23.695 155.02 23.7146C156.001 23.7222 156.967 23.9567 157.843 24.3996C158.719 24.8426 159.48 25.482 160.068 26.268C160.858 27.3308 161.291 28.6166 161.305 29.941C161.305 29.9017 166.117 14.3064 145.592 14.3064C136.969 14.3064 129.879 22.4772 129.879 29.666C129.844 33.4634 130.656 37.2207 132.255 40.6652C134.874 46.2414 139.449 50.6621 145.112 53.088C150.775 55.5139 157.131 55.7761 162.975 53.825C160.927 54.4715 158.764 54.6659 156.634 54.3946C154.505 54.1233 152.459 53.3928 150.64 52.2536H150.62Z" fill="url(#paint5_radial_12974_6060)"/>
<path d="M159.793 34.0853C159.616 34.2817 159.125 34.5764 159.125 35.1853C159.125 35.6959 159.459 36.2066 160.068 36.6191C162.876 38.5832 168.199 38.3082 168.219 38.3082C170.313 38.3069 172.368 37.7439 174.17 36.678C175.985 35.6167 177.49 34.0996 178.537 32.277C179.585 30.4544 180.138 28.3898 180.141 26.2877C180.2 21.888 178.57 18.9614 177.922 17.6651C173.738 9.53355 164.762 4.85889 155 4.85889C148.393 4.85823 142.051 7.45843 137.346 12.0971C132.642 16.7358 129.952 23.04 129.859 29.6464C129.957 22.4772 137.087 16.683 145.572 16.683C146.26 16.683 150.188 16.742 153.822 18.6472C156.374 19.9157 158.488 21.9203 159.891 24.4021C161.089 26.4841 161.305 29.1357 161.305 30.1963C161.305 31.257 160.775 32.8086 159.773 34.105L159.793 34.0853Z" fill="url(#paint6_radial_12974_6060)"/>
<path d="M159.793 34.0853C159.616 34.2817 159.125 34.5764 159.125 35.1853C159.125 35.6959 159.459 36.2066 160.068 36.6191C162.876 38.5832 168.199 38.3082 168.219 38.3082C170.313 38.3069 172.368 37.7439 174.17 36.678C175.985 35.6167 177.49 34.0996 178.537 32.277C179.585 30.4544 180.138 28.3898 180.141 26.2877C180.2 21.888 178.57 18.9614 177.922 17.6651C173.738 9.53355 164.762 4.85889 155 4.85889C148.393 4.85823 142.051 7.45843 137.346 12.0971C132.642 16.7358 129.952 23.04 129.859 29.6464C129.957 22.4772 137.087 16.683 145.572 16.683C146.26 16.683 150.188 16.742 153.822 18.6472C156.374 19.9157 158.488 21.9203 159.891 24.4021C161.089 26.4841 161.305 29.1357 161.305 30.1963C161.305 31.257 160.775 32.8086 159.773 34.105L159.793 34.0853Z" fill="url(#paint7_radial_12974_6060)"/>
</g>
<g clip-path="url(#clip2_12974_6060)">
<path d="M78.767 17.4295C76.5604 13.6079 73.3867 10.4344 69.5649 8.22805C65.7431 6.02167 61.4079 4.86011 56.9949 4.86011C52.582 4.86011 48.2467 6.02167 44.4249 8.22805C40.6032 10.4344 37.4295 13.6079 35.2228 17.4295L36.7312 44.5818L78.767 17.4295Z" fill="url(#paint8_linear_12974_6060)"/>
<path d="M46.1139 36.2852L35.2279 17.4294C33.0213 21.2513 31.8596 25.5867 31.8596 29.9998C31.8596 34.4129 33.0212 38.7483 35.2277 42.5702C37.4342 46.3921 40.6079 49.5659 44.4297 51.7725C48.2515 53.9791 52.5869 55.1409 57 55.141L81.6382 30L46.1139 36.2852Z" fill="url(#paint9_linear_12974_6060)"/>
<path d="M67.8861 36.2852L57 55.141C61.4127 55.14 65.7474 53.9776 69.5685 51.7706C73.3897 49.5636 76.5626 46.3898 78.7685 42.568C80.9744 38.7463 82.1356 34.4112 82.1354 29.9985C82.1351 25.5858 80.9734 21.2509 78.7671 17.4294H57L67.8861 36.2852Z" fill="url(#paint10_linear_12974_6060)"/>
<path d="M57 42.5705C58.6507 42.5705 60.2854 42.2453 61.8105 41.6136C63.3356 40.9819 64.7214 40.0559 65.8887 38.8887C67.0559 37.7214 67.9819 36.3356 68.6136 34.8105C69.2453 33.2854 69.5705 31.6507 69.5705 30C69.5705 28.3492 69.2453 26.7146 68.6136 25.1894C67.9819 23.6643 67.0559 22.2785 65.8887 21.1113C64.7214 19.944 63.3356 19.018 61.8105 18.3863C60.2854 17.7546 58.6507 17.4294 57 17.4294C53.666 17.4294 50.4687 18.7538 48.1113 21.1113C45.7538 23.4687 44.4294 26.666 44.4294 30C44.4294 33.3339 45.7538 36.5312 48.1113 38.8886C50.4687 41.2461 53.666 42.5705 57 42.5705Z" fill="white"/>
<path d="M57 39.9559C58.3075 39.9559 59.6021 39.6984 60.81 39.198C62.0179 38.6977 63.1154 37.9644 64.0399 37.0399C64.9644 36.1154 65.6977 35.0179 66.198 33.81C66.6984 32.6021 66.9559 31.3075 66.9559 30C66.9559 28.6926 66.6984 27.398 66.198 26.1901C65.6977 24.9822 64.9644 23.8847 64.0399 22.9602C63.1154 22.0357 62.0179 21.3024 60.81 20.802C59.6021 20.3017 58.3075 20.0442 57 20.0442C54.3596 20.0442 51.8273 21.0931 49.9602 22.9602C48.0931 24.8273 47.0442 27.3596 47.0442 30C47.0442 32.6405 48.0931 35.1728 49.9602 37.0399C51.8273 38.907 54.3596 39.9559 57 39.9559Z" fill="#1A73E8"/>
</g>
<rect x="76" width="60" height="60" rx="30" fill="url(#paint11_radial_12974_6060)"/>
<rect x="76" width="60" height="60" rx="30" fill="black" style="mix-blend-mode:hue"/>
<g filter="url(#filter0_dd_12974_6060)">
<path d="M95.7334 41.5928C93.5752 41.5928 92.0898 39.8916 92.0898 37.9492C92.0898 37.3398 92.2549 36.7305 92.5723 36.1592L102.5 18.3477C103.211 17.0781 104.417 16.4688 105.661 16.4688C106.893 16.4688 108.086 17.0527 108.797 18.3477L118.737 36.1465C119.055 36.7305 119.207 37.3398 119.207 37.9492C119.207 39.8916 117.734 41.5928 115.576 41.5928H95.7334ZM105.674 32.1855C106.677 32.1855 107.261 31.6396 107.324 30.5986L107.553 25.8887C107.616 24.7842 106.829 24.0352 105.661 24.0352C104.48 24.0352 103.706 24.7715 103.77 25.876L103.998 30.624C104.049 31.6396 104.658 32.1855 105.674 32.1855ZM105.674 36.959C106.816 36.959 107.654 36.2988 107.654 35.2197C107.654 34.1533 106.816 33.4805 105.674 33.4805C104.531 33.4805 103.668 34.1406 103.668 35.2197C103.668 36.2988 104.531 36.959 105.674 36.959Z" fill="white"/>
</g>
<rect x="76.5" y="0.5" width="59" height="59" rx="29.5" stroke="#F5F8FF" stroke-opacity="0.12"/>
<defs>
<filter id="filter0_dd_12974_6060" x="80.0898" y="8.46875" width="51.1172" height="49.124" filterUnits="userSpaceOnUse" color-interpolation-filters="sRGB">
<feFlood flood-opacity="0" result="BackgroundImageFix"/>
<feColorMatrix in="SourceAlpha" type="matrix" values="0 0 0 0 0 0 0 0 0 0 0 0 0 0 0 0 0 0 127 0" result="hardAlpha"/>
<feOffset dy="2"/>
<feGaussianBlur stdDeviation="3"/>
<feColorMatrix type="matrix" values="0 0 0 0 0 0 0 0 0 0 0 0 0 0 0 0 0 0 0.02 0"/>
<feBlend mode="normal" in2="BackgroundImageFix" result="effect1_dropShadow_12974_6060"/>
<feColorMatrix in="SourceAlpha" type="matrix" values="0 0 0 0 0 0 0 0 0 0 0 0 0 0 0 0 0 0 127 0" result="hardAlpha"/>
<feOffset dy="4"/>
<feGaussianBlur stdDeviation="6"/>
<feColorMatrix type="matrix" values="0 0 0 0 0 0 0 0 0 0 0 0 0 0 0 0 0 0 0.16 0"/>
<feBlend mode="normal" in2="effect1_dropShadow_12974_6060" result="effect2_dropShadow_12974_6060"/>
<feBlend mode="normal" in="SourceGraphic" in2="effect2_dropShadow_12974_6060" result="shape"/>
</filter>
<linearGradient id="paint0_linear_12974_6060" x1="176.489" y1="30.0381" x2="207.875" y2="30.0381" gradientUnits="userSpaceOnUse">
<stop stop-color="#FF5500"/>
<stop offset="0.409877" stop-color="#FF5500"/>
<stop offset="0.581981" stop-color="#FF2000"/>
<stop offset="1" stop-color="#FF2000"/>
</linearGradient>
<linearGradient id="paint1_linear_12974_6060" x1="179.716" y1="14.4515" x2="205.208" y2="14.4515" gradientUnits="userSpaceOnUse">
<stop stop-color="#FF452A"/>
<stop offset="1" stop-color="#FF2000"/>
</linearGradient>
<linearGradient id="paint2_linear_12974_6060" x1="141.388" y1="39.6241" x2="176.429" y2="39.6241" gradientUnits="userSpaceOnUse">
<stop stop-color="#0C59A4"/>
<stop offset="1" stop-color="#114A8B"/>
</linearGradient>
<radialGradient id="paint3_radial_12974_6060" cx="0" cy="0" r="1" gradientUnits="userSpaceOnUse" gradientTransform="translate(160.735 39.8883) scale(18.7379 17.801)">
<stop offset="0.7" stop-opacity="0"/>
<stop offset="0.9" stop-opacity="0.5"/>
<stop offset="1"/>
</radialGradient>
<linearGradient id="paint4_linear_12974_6060" x1="159.852" y1="24.4217" x2="137.991" y2="48.2468" gradientUnits="userSpaceOnUse">
<stop stop-color="#1B9DE2"/>
<stop offset="0.2" stop-color="#1595DF"/>
<stop offset="0.7" stop-color="#0680D7"/>
<stop offset="1" stop-color="#0078D4"/>
</linearGradient>
<radialGradient id="paint5_radial_12974_6060" cx="0" cy="0" r="1" gradientUnits="userSpaceOnUse" gradientTransform="translate(143.717 43.9329) rotate(-81.3844) scale(28.1631 22.7529)">
<stop offset="0.8" stop-opacity="0"/>
<stop offset="0.9" stop-opacity="0.5"/>
<stop offset="1"/>
</radialGradient>
<radialGradient id="paint6_radial_12974_6060" cx="0" cy="0" r="1" gradientUnits="userSpaceOnUse" gradientTransform="translate(134.944 14.1524) rotate(92.2906) scale(39.786 84.736)">
<stop stop-color="#35C1F1"/>
<stop offset="0.1" stop-color="#34C1ED"/>
<stop offset="0.2" stop-color="#2FC2DF"/>
<stop offset="0.3" stop-color="#2BC3D2"/>
<stop offset="0.7" stop-color="#36C752"/>
</radialGradient>
<radialGradient id="paint7_radial_12974_6060" cx="0" cy="0" r="1" gradientUnits="userSpaceOnUse" gradientTransform="translate(177.01 20.0417) rotate(73.7398) scale(19.1111 15.5412)">
<stop stop-color="#66EB6E"/>
<stop offset="1" stop-color="#66EB6E" stop-opacity="0"/>
</radialGradient>
<linearGradient id="paint8_linear_12974_6060" x1="35.2278" y1="20.5721" x2="78.767" y2="20.5721" gradientUnits="userSpaceOnUse">
<stop stop-color="#D93025"/>
<stop offset="1" stop-color="#EA4335"/>
</linearGradient>
<linearGradient id="paint9_linear_12974_6060" x1="59.7203" y1="53.5672" x2="37.9481" y2="15.8556" gradientUnits="userSpaceOnUse">
<stop stop-color="#1E8E3E"/>
<stop offset="1" stop-color="#34A853"/>
</linearGradient>
<linearGradient id="paint10_linear_12974_6060" x1="53.3294" y1="55.141" x2="75.1015" y2="17.4948" gradientUnits="userSpaceOnUse">
<stop stop-color="#FCC934"/>
<stop offset="1" stop-color="#FBBC04"/>
</linearGradient>
<radialGradient id="paint11_radial_12974_6060" cx="0" cy="0" r="1" gradientUnits="userSpaceOnUse" gradientTransform="translate(94 3.5) rotate(67.4161) scale(61.1923 119.167)">
<stop stop-color="#FF9233"/>
<stop offset="1" stop-color="#FA423C"/>
</radialGradient>
<clipPath id="clip0_12974_6060">
<rect width="32.1599" height="37.9486" fill="white" transform="translate(176.103 11.0256)"/>
</clipPath>
<clipPath id="clip1_12974_6060">
<rect width="50.2821" height="50.2821" fill="white" transform="translate(129.859 4.85889)"/>
</clipPath>
<clipPath id="clip2_12974_6060">
<rect width="50.2821" height="50.2821" fill="white" transform="translate(31.859 4.85913)"/>
</clipPath>
</defs>
</svg>
